# xmcd
#
# Track frame offsets:
#	150
#	19275
#	31657
#	57725
#	74655
#	90787
#	113545
#	134912
#	157487
#	179980
#	200860
#	215390
#	240797
#
# Disc length: 3471 seconds
#
# Revision: 0
# Processed by: cddbd v1.4PL0 Copyright (c) Steve Scherf et al.
# Submitted via: dBpowerAMP V4.0
#
DISCID=c60d8d0d
DTITLE=Peter Dawson Band - Live at Coupland
DYEAR=2003
DGENRE=Alternative Countr
TTITLE0=Change the Things I Can
TTITLE1=I Want To Get Loud
TTITLE2=No More Lies
TTITLE3=As Big A Star
TTITLE4=Clay Pigeons
TTITLE5=It Ain't Texas
TTITLE6=Try
TTITLE7=Restless Spirits
TTITLE8=Crazy About You
TTITLE9=A Love I'll Never Forget
TTITLE10=Blacktop Highway
TTITLE11=Willie Nelson For President
TTITLE12=Travis County Heartbreak
EXTD=
EXTT0=
EXTT1=
EXTT2=
EXTT3=
EXTT4=
EXTT5=
EXTT6=
EXTT7=
EXTT8=
EXTT9=
EXTT10=
EXTT11=
EXTT12=
PLAYORDER=
